ffmpeg started on 2025-05-28 at 22:00:50
Report written to "D:\Convert\FFMetrics\reports\ssim_report-6.txt"
Log level: 32
Command line:
ffmpeg -hide_banner -nostdin -i "G:\\\xc0\xed\xe8\xec\xe5\\\xce\xed\xe3\xee\xe8\xed\xe3\xe8\\!_36_\xce\xf1\xe5\xed\xfc_2024\\JamClub\\\xcc\xe5\xf5\xe0\xed\xe8\xf7\xe5\xf1\xea\xe8\xe5 \xf0\xf3\xea\xe8\\JamClub_Mecha_ude_TV_05_1080p_HEVC.mkv" -i "G:\\\xc0\xed\xe8\xec\xe5\\\xce\xed\xe3\xee\xe8\xed\xe3\xe8\\!_36_\xce\xf1\xe5\xed\xfc_2024\\JamClub\\\xcc\xe5\xf5\xe0\xed\xe8\xf7\xe5\xf1\xea\xe8\xe5 \xf0\xf3\xea\xe8\\JamClub_Mecha_ude_TV_05_1080p.mp4" -lavfi "[0:v]settb=AVTB,setpts=PTS-STARTPTS,format=pix_fmts=yuv420p10,fps=24000/1001,scale=1920:1080:flags=bicubic[main];[1:v]settb=AVTB,setpts=PTS-STARTPTS,format=pix_fmts=yuv420p,fps=24000/1001,scale=1920:1080:flags=bicubic[ref];[main][ref]ssim=eof_action=endall:stats_file='D\\:/Convert/FFMetrics/logs/ssim_logfile-6.txt'" -f null -
Input #0, matroska,webm, from 'G:\Аниме\Онгоинги\!_36_Осень_2024\JamClub\Механические руки\JamClub_Mecha_ude_TV_05_1080p_HEVC.mkv':
  Metadata:
    COMPATIBLE_BRANDS: isomiso2avc1mp41
    MAJOR_BRAND     : isom
    MINOR_VERSION   : 512
    ENCODER         : Lavf61.7.100
  Duration: 00:24:04.37, start: -0.001000, bitrate: 1110 kb/s
  Stream #0:0: Video: hevc (Main 10), yuv420p10le(tv, bt709, progressive), 1920x1080 [SAR 1:1 DAR 16:9], 23.98 fps, 23.98 tbr, 1k tbn (default)
      Metadata:
        HANDLER_NAME    : VideoHandler
        VENDOR_ID       : [0][0][0][0]
        ENCODER         : Lavc61.19.100 libx265
        BPS             : 912779
        DURATION        : 00:24:04.234708333
        NUMBER_OF_FRAMES: 34627
        NUMBER_OF_BYTES : 164783450
        _STATISTICS_WRITING_APP: mkvpropedit v66.0.0 ('Josie') 64-bit
        _STATISTICS_WRITING_DATE_UTC: 2025-05-28 15:12:48
        _STATISTICS_TAGS: BPS DURATION NUMBER_OF_FRAMES NUMBER_OF_BYTES
  Stream #0:1(eng): Audio: aac (LC), 48000 Hz, stereo, fltp (default)
      Metadata:
        HANDLER_NAME    : SoundHandler
        VENDOR_ID       : [0][0][0][0]
        ENCODER         : Lavc61.19.100 aac
        BPS             : 194147
        DURATION        : 00:24:04.333000000
        NUMBER_OF_FRAMES: 67704
        NUMBER_OF_BYTES : 35051673
        _STATISTICS_WRITING_APP: mkvpropedit v66.0.0 ('Josie') 64-bit
        _STATISTICS_WRITING_DATE_UTC: 2025-05-28 15:12:48
        _STATISTICS_TAGS: BPS DURATION NUMBER_OF_FRAMES NUMBER_OF_BYTES
Input #1, mov,mp4,m4a,3gp,3g2,mj2, from 'G:\Аниме\Онгоинги\!_36_Осень_2024\JamClub\Механические руки\JamClub_Mecha_ude_TV_05_1080p.mp4':
  Metadata:
    major_brand     : isom
    minor_version   : 512
    compatible_brands: isomiso2avc1mp41
    encoder         : Lavf60.16.100
  Duration: 00:24:04.35, start: 0.000000, bitrate: 3368 kb/s
  Stream #1:0[0x1](und): Video: h264 (High) (avc1 / 0x31637661), yuv420p(progressive), 1920x1080 [SAR 1:1 DAR 16:9], 3170 kb/s, 23.98 fps, 23.98 tbr, 90k tbn (default)
      Metadata:
        handler_name    : VideoHandler
        vendor_id       : [0][0][0][0]
  Stream #1:1[0x2](eng): Audio: aac (LC) (mp4a / 0x6134706D), 48000 Hz, stereo, fltp, 191 kb/s (default)
      Metadata:
        handler_name    : SoundHandler
        vendor_id       : [0][0][0][0]
Stream mapping:
  Stream #0:0 (hevc) -> settb:default
  Stream #1:0 (h264) -> settb:default
  ssim:default -> Stream #0:0 (wrapped_avframe)
  Stream #0:1 -> #0:1 (aac (native) -> pcm_s16le (native))
Output #0, null, to 'pipe:':
  Metadata:
    COMPATIBLE_BRANDS: isomiso2avc1mp41
    MAJOR_BRAND     : isom
    MINOR_VERSION   : 512
    encoder         : Lavf61.7.100
  Stream #0:0: Video: wrapped_avframe, yuv420p10le(tv, bt709, progressive), 1920x1080 [SAR 1:1 DAR 16:9], q=2-31, 200 kb/s, 23.98 fps, 23.98 tbn
      Metadata:
        encoder         : Lavc61.19.100 wrapped_avframe
  Stream #0:1(eng): Audio: pcm_s16le, 48000 Hz, stereo, s16, 1536 kb/s (default)
      Metadata:
        HANDLER_NAME    : SoundHandler
        VENDOR_ID       : [0][0][0][0]
        _STATISTICS_TAGS: BPS DURATION NUMBER_OF_FRAMES NUMBER_OF_BYTES
        BPS             : 194147
        DURATION        : 00:24:04.333000000
        NUMBER_OF_FRAMES: 67704
        NUMBER_OF_BYTES : 35051673
        _STATISTICS_WRITING_APP: mkvpropedit v66.0.0 ('Josie') 64-bit
        _STATISTICS_WRITING_DATE_UTC: 2025-05-28 15:12:48
        encoder         : Lavc61.19.100 pcm_s16le
frame=  113 fps=0.0 q=-0.0 size=N/A time=00:00:04.71 bitrate=N/A speed=8.94x    frame=  276 fps=267 q=-0.0 size=N/A time=00:00:11.51 bitrate=N/A speed=11.1x    frame=  480 fps=308 q=-0.0 size=N/A time=00:00:20.02 bitrate=N/A speed=12.9x    frame=  727 fps=350 q=-0.0 size=N/A time=00:00:30.32 bitrate=N/A speed=14.6x    frame= 1002 fps=385 q=-0.0 size=N/A time=00:00:41.79 bitrate=N/A speed=16.1x    frame= 1286 fps=413 q=-0.0 size=N/A time=00:00:53.63 bitrate=N/A speed=17.2x    frame= 1588 fps=437 q=-0.0 size=N/A time=00:01:06.23 bitrate=N/A speed=18.2x    frame= 1859 fps=448 q=-0.0 size=N/A time=00:01:17.53 bitrate=N/A speed=18.7x    frame= 2116 fps=453 q=-0.0 size=N/A time=00:01:28.25 bitrate=N/A speed=18.9x    frame= 2374 fps=459 q=-0.0 size=N/A time=00:01:39.01 bitrate=N/A speed=19.1x    frame= 2558 fps=449 q=-0.0 size=N/A time=00:01:46.68 bitrate=N/A speed=18.7x    frame= 2743 fps=441 q=-0.0 size=N/A time=00:01:54.40 bitrate=N/A speed=18.4x    frame= 2961 fps=440 q=-0.0 size=N/A time=00:02:03.49 bitrate=N/A speed=18.4x    frame= 3131 fps=432 q=-0.0 size=N/A time=00:02:10.58 bitrate=N/A speed=  18x    frame= 3297 fps=425 q=-0.0 size=N/A time=00:02:17.51 bitrate=N/A speed=17.7x    frame= 3444 fps=416 q=-0.0 size=N/A time=00:02:23.64 bitrate=N/A speed=17.4x    frame= 3629 fps=413 q=-0.0 size=N/A time=00:02:31.35 bitrate=N/A speed=17.2x    frame= 3812 fps=409 q=-0.0 size=N/A time=00:02:38.99 bitrate=N/A speed=17.1x    frame= 4042 fps=412 q=-0.0 size=N/A time=00:02:48.58 bitrate=N/A speed=17.2x    frame= 4294 fps=415 q=-0.0 size=N/A time=00:02:59.09 bitrate=N/A speed=17.3x    frame= 4545 fps=419 q=-0.0 size=N/A time=00:03:09.56 bitrate=N/A speed=17.5x    frame= 4820 fps=424 q=-0.0 size=N/A time=00:03:21.03 bitrate=N/A speed=17.7x    frame= 5106 fps=430 q=-0.0 size=N/A time=00:03:32.96 bitrate=N/A speed=17.9x    frame= 5378 fps=434 q=-0.0 size=N/A time=00:03:44.30 bitrate=N/A speed=18.1x    frame= 5671 fps=439 q=-0.0 size=N/A time=00:03:56.52 bitrate=N/A speed=18.3x    frame= 5927 fps=441 q=-0.0 size=N/A time=00:04:07.20 bitrate=N/A speed=18.4x    frame= 6208 fps=445 q=-0.0 size=N/A time=00:04:18.92 bitrate=N/A speed=18.6x    frame= 6464 fps=447 q=-0.0 size=N/A time=00:04:29.60 bitrate=N/A speed=18.6x    frame= 6699 fps=447 q=-0.0 size=N/A time=00:04:39.40 bitrate=N/A speed=18.6x    frame= 6943 fps=448 q=-0.0 size=N/A time=00:04:49.58 bitrate=N/A speed=18.7x    frame= 7218 fps=451 q=-0.0 size=N/A time=00:05:01.05 bitrate=N/A speed=18.8x    frame= 7471 fps=452 q=-0.0 size=N/A time=00:05:11.60 bitrate=N/A speed=18.9x    frame= 7696 fps=452 q=-0.0 size=N/A time=00:05:20.98 bitrate=N/A speed=18.8x    frame= 7969 fps=454 q=-0.0 size=N/A time=00:05:32.37 bitrate=N/A speed=18.9x    frame= 8217 fps=455 q=-0.0 size=N/A time=00:05:42.71 bitrate=N/A speed=  19x    frame= 8480 fps=456 q=-0.0 size=N/A time=00:05:53.68 bitrate=N/A speed=  19x    frame= 8745 fps=458 q=-0.0 size=N/A time=00:06:04.73 bitrate=N/A speed=19.1x    frame= 9022 fps=460 q=-0.0 size=N/A time=00:06:16.29 bitrate=N/A speed=19.2x    frame= 9297 fps=462 q=-0.0 size=N/A time=00:06:27.76 bitrate=N/A speed=19.3x    frame= 9574 fps=464 q=-0.0 size=N/A time=00:06:39.31 bitrate=N/A speed=19.3x    frame= 9847 fps=465 q=-0.0 size=N/A time=00:06:50.70 bitrate=N/A speed=19.4x    frame=10080 fps=465 q=-0.0 size=N/A time=00:07:00.42 bitrate=N/A speed=19.4x    frame=10309 fps=464 q=-0.0 size=N/A time=00:07:09.97 bitrate=N/A speed=19.4x    frame=10487 fps=462 q=-0.0 size=N/A time=00:07:17.39 bitrate=N/A speed=19.3x    frame=10665 fps=459 q=-0.0 size=N/A time=00:07:24.81 bitrate=N/A speed=19.2x    frame=10842 fps=457 q=-0.0 size=N/A time=00:07:32.20 bitrate=N/A speed=19.1x    frame=11069 fps=456 q=-0.0 size=N/A time=00:07:41.71 bitrate=N/A speed=  19x    frame=11344 fps=458 q=-0.0 size=N/A time=00:07:53.13 bitrate=N/A speed=19.1x    frame=11612 fps=459 q=-0.0 size=N/A time=00:08:04.31 bitrate=N/A speed=19.2x    frame=11877 fps=460 q=-0.0 size=N/A time=00:08:15.36 bitrate=N/A speed=19.2x    frame=12129 fps=461 q=-0.0 size=N/A time=00:08:25.88 bitrate=N/A speed=19.2x    frame=12414 fps=463 q=-0.0 size=N/A time=00:08:37.76 bitrate=N/A speed=19.3x    frame=12675 fps=464 q=-0.0 size=N/A time=00:08:48.65 bitrate=N/A speed=19.3x    frame=12941 fps=464 q=-0.0 size=N/A time=00:08:59.74 bitrate=N/A speed=19.4x    frame=13215 fps=465 q=-0.0 size=N/A time=00:09:11.17 bitrate=N/A speed=19.4x    frame=13472 fps=466 q=-0.0 size=N/A time=00:09:21.89 bitrate=N/A speed=19.4x    frame=13747 fps=467 q=-0.0 size=N/A time=00:09:33.36 bitrate=N/A speed=19.5x    frame=13992 fps=467 q=-0.0 size=N/A time=00:09:43.58 bitrate=N/A speed=19.5x    frame=14254 fps=468 q=-0.0 size=N/A time=00:09:54.51 bitrate=N/A speed=19.5x    frame=14514 fps=469 q=-0.0 size=N/A time=00:10:05.35 bitrate=N/A speed=19.6x    frame=14750 fps=469 q=-0.0 size=N/A time=00:10:15.19 bitrate=N/A speed=19.5x    frame=14854 fps=464 q=-0.0 size=N/A time=00:10:19.53 bitrate=N/A speed=19.4x    frame=15111 fps=465 q=-0.0 size=N/A time=00:10:30.25 bitrate=N/A speed=19.4x    frame=15379 fps=466 q=-0.0 size=N/A time=00:10:41.43 bitrate=N/A speed=19.4x    frame=15659 fps=467 q=-0.0 size=N/A time=00:10:53.11 bitrate=N/A speed=19.5x    frame=15939 fps=468 q=-0.0 size=N/A time=00:11:04.78 bitrate=N/A speed=19.5x    frame=16183 fps=468 q=-0.0 size=N/A time=00:11:14.96 bitrate=N/A speed=19.5x    frame=16439 fps=469 q=-0.0 size=N/A time=00:11:25.64 bitrate=N/A speed=19.5x    frame=16712 fps=469 q=-0.0 size=N/A time=00:11:37.02 bitrate=N/A speed=19.6x    frame=16995 fps=471 q=-0.0 size=N/A time=00:11:48.83 bitrate=N/A speed=19.6x    frame=17254 fps=471 q=-0.0 size=N/A time=00:11:59.63 bitrate=N/A speed=19.6x    frame=17522 fps=472 q=-0.0 size=N/A time=00:12:10.81 bitrate=N/A speed=19.7x    frame=17793 fps=473 q=-0.0 size=N/A time=00:12:22.11 bitrate=N/A speed=19.7x    frame=18075 fps=473 q=-0.0 size=N/A time=00:12:33.87 bitrate=N/A speed=19.7x    frame=18366 fps=475 q=-0.0 size=N/A time=00:12:46.01 bitrate=N/A speed=19.8x    frame=18619 fps=475 q=-0.0 size=N/A time=00:12:56.56 bitrate=N/A speed=19.8x    frame=18895 fps=476 q=-0.0 size=N/A time=00:13:08.07 bitrate=N/A speed=19.8x    frame=19139 fps=476 q=-0.0 size=N/A time=00:13:18.25 bitrate=N/A speed=19.8x    frame=19416 fps=476 q=-0.0 size=N/A time=00:13:29.80 bitrate=N/A speed=19.9x    frame=19664 fps=476 q=-0.0 size=N/A time=00:13:40.15 bitrate=N/A speed=19.9x    frame=19926 fps=477 q=-0.0 size=N/A time=00:13:51.08 bitrate=N/A speed=19.9x    frame=20111 fps=475 q=-0.0 size=N/A time=00:13:58.79 bitrate=N/A speed=19.8x    frame=20366 fps=476 q=-0.0 size=N/A time=00:14:09.43 bitrate=N/A speed=19.8x    frame=20623 fps=476 q=-0.0 size=N/A time=00:14:20.15 bitrate=N/A speed=19.8x    frame=20860 fps=476 q=-0.0 size=N/A time=00:14:30.03 bitrate=N/A speed=19.8x    frame=21126 fps=476 q=-0.0 size=N/A time=00:14:41.13 bitrate=N/A speed=19.9x    frame=21354 fps=476 q=-0.0 size=N/A time=00:14:50.63 bitrate=N/A speed=19.8x    frame=21597 fps=476 q=-0.0 size=N/A time=00:15:00.77 bitrate=N/A speed=19.8x    frame=21807 fps=475 q=-0.0 size=N/A time=00:15:09.53 bitrate=N/A speed=19.8x    frame=22067 fps=475 q=-0.0 size=N/A time=00:15:20.37 bitrate=N/A speed=19.8x    frame=22278 fps=475 q=-0.0 size=N/A time=00:15:29.17 bitrate=N/A speed=19.8x    frame=22538 fps=475 q=-0.0 size=N/A time=00:15:40.02 bitrate=N/A speed=19.8x    frame=22792 fps=475 q=-0.0 size=N/A time=00:15:50.61 bitrate=N/A speed=19.8x    frame=23033 fps=475 q=-0.0 size=N/A time=00:16:00.66 bitrate=N/A speed=19.8x    frame=23289 fps=475 q=-0.0 size=N/A time=00:16:11.34 bitrate=N/A speed=19.8x    frame=23543 fps=475 q=-0.0 size=N/A time=00:16:21.93 bitrate=N/A speed=19.8x    frame=23834 fps=476 q=-0.0 size=N/A time=00:16:34.07 bitrate=N/A speed=19.9x    frame=24100 fps=477 q=-0.0 size=N/A time=00:16:45.17 bitrate=N/A speed=19.9x    frame=24369 fps=477 q=-0.0 size=N/A time=00:16:56.39 bitrate=N/A speed=19.9x    frame=24641 fps=478 q=-0.0 size=N/A time=00:17:07.73 bitrate=N/A speed=19.9x    frame=24899 fps=478 q=-0.0 size=N/A time=00:17:18.49 bitrate=N/A speed=19.9x    frame=25136 fps=478 q=-0.0 size=N/A time=00:17:28.38 bitrate=N/A speed=19.9x    frame=25402 fps=478 q=-0.0 size=N/A time=00:17:39.47 bitrate=N/A speed=19.9x    frame=25685 fps=479 q=-0.0 size=N/A time=00:17:51.27 bitrate=N/A speed=  20x    frame=25967 fps=479 q=-0.0 size=N/A time=00:18:03.04 bitrate=N/A speed=  20x    frame=26235 fps=480 q=-0.0 size=N/A time=00:18:14.21 bitrate=N/A speed=  20x    frame=26496 fps=480 q=-0.0 size=N/A time=00:18:25.10 bitrate=N/A speed=  20x    frame=26758 fps=480 q=-0.0 size=N/A time=00:18:36.03 bitrate=N/A speed=  20x    frame=27023 fps=481 q=-0.0 size=N/A time=00:18:47.08 bitrate=N/A speed=  20x    frame=27317 fps=481 q=-0.0 size=N/A time=00:18:59.34 bitrate=N/A speed=20.1x    frame=27586 fps=482 q=-0.0 size=N/A time=00:19:10.56 bitrate=N/A speed=20.1x    frame=27868 fps=482 q=-0.0 size=N/A time=00:19:22.32 bitrate=N/A speed=20.1x    frame=28139 fps=483 q=-0.0 size=N/A time=00:19:33.63 bitrate=N/A speed=20.1x    frame=28418 fps=483 q=-0.0 size=N/A time=00:19:45.26 bitrate=N/A speed=20.2x    frame=28691 fps=484 q=-0.0 size=N/A time=00:19:56.65 bitrate=N/A speed=20.2x    frame=28934 fps=484 q=-0.0 size=N/A time=00:20:06.78 bitrate=N/A speed=20.2x    frame=29210 fps=484 q=-0.0 size=N/A time=00:20:18.30 bitrate=N/A speed=20.2x    frame=29465 fps=484 q=-0.0 size=N/A time=00:20:28.93 bitrate=N/A speed=20.2x    frame=29713 fps=484 q=-0.0 size=N/A time=00:20:39.27 bitrate=N/A speed=20.2x    frame=29999 fps=485 q=-0.0 size=N/A time=00:20:51.20 bitrate=N/A speed=20.2x    frame=30269 fps=485 q=-0.0 size=N/A time=00:21:02.46 bitrate=N/A speed=20.2x    frame=30509 fps=485 q=-0.0 size=N/A time=00:21:12.47 bitrate=N/A speed=20.2x    frame=30764 fps=485 q=-0.0 size=N/A time=00:21:23.11 bitrate=N/A speed=20.2x    frame=30991 fps=485 q=-0.0 size=N/A time=00:21:32.58 bitrate=N/A speed=20.2x    frame=31248 fps=485 q=-0.0 size=N/A time=00:21:43.30 bitrate=N/A speed=20.2x    frame=31534 fps=485 q=-0.0 size=N/A time=00:21:55.23 bitrate=N/A speed=20.2x    frame=31819 fps=486 q=-0.0 size=N/A time=00:22:07.11 bitrate=N/A speed=20.3x    frame=32098 fps=486 q=-0.0 size=N/A time=00:22:18.75 bitrate=N/A speed=20.3x    frame=32353 fps=486 q=-0.0 size=N/A time=00:22:29.38 bitrate=N/A speed=20.3x    frame=32620 fps=486 q=-0.0 size=N/A time=00:22:40.52 bitrate=N/A speed=20.3x    frame=32880 fps=487 q=-0.0 size=N/A time=00:22:51.37 bitrate=N/A speed=20.3x    frame=33130 fps=487 q=-0.0 size=N/A time=00:23:01.79 bitrate=N/A speed=20.3x    frame=33393 fps=487 q=-0.0 size=N/A time=00:23:12.76 bitrate=N/A speed=20.3x    frame=33639 fps=487 q=-0.0 size=N/A time=00:23:23.02 bitrate=N/A speed=20.3x    frame=33890 fps=487 q=-0.0 size=N/A time=00:23:33.49 bitrate=N/A speed=20.3x    frame=34154 fps=487 q=-0.0 size=N/A time=00:23:44.50 bitrate=N/A speed=20.3x    frame=34431 fps=487 q=-0.0 size=N/A time=00:23:56.05 bitrate=N/A speed=20.3x    [Parsed_ssim_10 @ 000001904b85dd80] SSIM Y:0.993758 (22.046712) U:0.994673 (22.735164) V:0.994637 (22.705988) All:0.994057 (22.259916)
[out#0/null @ 0000019040dcf200] video:14879KiB audio:270816KiB subtitle:0KiB other streams:0KiB global headers:0KiB muxing overhead: unknown
frame=34627 fps=487 q=-0.0 Lsize=N/A time=00:24:04.23 bitrate=N/A speed=20.3x    
